<svg xmlns="http://www.w3.org/2000/svg" data-name="Layer 1" viewBox="0 0 24 24" id="volleyball"><path d="M22.44,17.9a12,12,0,0,0,1.17-9h0A12,12,0,0,0,6.6,1.3l-.11.05A12.06,12.06,0,0,0,2.42,4.81l-.08.1a11.91,11.91,0,0,0-.77,13,.5.5,0,0,0,.11.18A12.07,12.07,0,0,0,6,22.39l0,0A11.9,11.9,0,0,0,11.18,24h.07c.25,0,.5,0,.75,0a12,12,0,0,0,10.32-5.91A.5.5,0,0,0,22.44,17.9ZM11.11,23A10.9,10.9,0,0,1,7.46,22c4.33-2.11,8-5.95,9.19-8.73a12.36,12.36,0,0,1,2.42,1.67C18.15,17.53,14.76,21,11.11,23Zm1-11.51a6.11,6.11,0,0,1-1.36-4c5.12.75,10.16,3.62,12.11,6a10.89,10.89,0,0,1-1,3.23C19.45,12.87,14.8,10.71,12.14,11.45ZM11.88,4l.62.13.33.08.56.14.36.1.53.15.38.12.5.16.41.15.45.16.41.16.44.18.39.17.43.19.39.19.4.19.37.2.38.2.35.2.36.21.33.21.34.22.31.22.31.22.28.22.28.23.25.22.25.23.21.23.19.2A11,11,0,0,1,23,12s0,.08,0,.11A23.2,23.2,0,0,0,10.77,6.46a12.47,12.47,0,0,1,.38-2.6l.45.08Zm10,3.24-.07-.05c-.27-.21-.55-.41-.85-.61l-.17-.11q-.48-.31-1-.61l-.21-.12c-.34-.19-.7-.38-1.06-.56l-.06,0c-.38-.18-.77-.36-1.17-.53l-.26-.11c-.4-.16-.8-.32-1.21-.47L15.67,4l-1.16-.37-.22-.07q-.63-.18-1.27-.33l-.27-.06c-.44-.1-.88-.19-1.32-.27a10.13,10.13,0,0,1,.41-1c.05-.11.11-.21.16-.32s.19-.36.29-.53A11,11,0,0,1,21.92,7.24Zm-11-5.78-.16.36a11.05,11.05,0,0,0-.47,1.33h0c-1,3.52-.53,7.38,1.14,9a5.52,5.52,0,0,1-2.14,2.72C7,10.43,6.46,5,7.2,2.11A10.91,10.91,0,0,1,11.12,1C11.05,1.17,11,1.31,10.94,1.45ZM6.05,2.76a23,23,0,0,0,2.42,12.7A12.44,12.44,0,0,1,5.6,16.75c-2-4-3-8.69-2.36-11.39A11.08,11.08,0,0,1,6.05,2.76Zm-4,4.49A24.65,24.65,0,0,0,4.62,17a10.59,10.59,0,0,1-2.29.24,10.94,10.94,0,0,1-.24-10Zm.86,11c4.57-.22,8.77-3.16,9.47-5.83a5.4,5.4,0,0,1,3.32.44c-1.11,2.73-5,6.64-9.4,8.57A11.08,11.08,0,0,1,2.95,18.23Zm10.12,4.71c3.1-2,5.75-4.86,6.77-7.25a10.72,10.72,0,0,1,1.53,2A11,11,0,0,1,13.07,22.95Z"></path></svg>